<svg xmlns="http://www.w3.org/2000/svg" viewBox="0 0 20 20">
    <path fill="#868d94" d="M.96 9.84c1.35.61 6.83 2.83 7.73 3.26.93.44 1.58.45 2.75-.16 1.13-.59 6.21-2.68 7.6-3.36l.16.06c1.04.38 1.08.7.01 1.25-1.06.56-6.59 2.83-7.77 3.44-1.17.62-1.82.61-2.75.17-.93-.45-6.81-2.82-7.87-3.33-1.06-.5-1.08-.85-.04-1.26l.18-.07zM.8 13.19h.01c1.06.5 6.94 2.88 7.87 3.33.93.44 1.58.45 2.75-.17 1.17-.6 6.6-2.84 7.74-3.42h.02c1.04.39 1.08.7.01 1.26-1.06.55-6.59 2.82-7.77 3.44-1.17.61-1.82.6-2.75.16-.93-.44-6.81-2.82-7.87-3.33-1.06-.5-1.08-.85-.04-1.26l.03-.01zm18.4-5.71c-1.06.55-6.59 2.82-7.77 3.44-1.17.61-1.82.6-2.75.16-.93-.44-6.81-2.82-7.87-3.32C-.24 7.25-.26 6.9.78 6.49c1.04-.4 6.89-2.7 8.12-3.14 1.24-.44 1.67-.46 2.72-.07 1.05.38 6.54 2.57 7.58 2.95 1.04.38 1.08.7.01 1.25zm-6.59-1.95l-1.34-.5.36-.86-1.32.44-1.4-.55.45.83-1.5.53 2 .18.63 1.04.39-.93 1.73-.18zm-2.22 4.53L11.8 8l-4.63.7 3.23 1.35zm-4.48-2.1c1.37 0 2.47-.42 2.47-.95s-1.1-.96-2.47-.96-2.48.43-2.48.96 1.11.96 2.48.96zm8.75-2.17v2.16l2.74-1.08-2.74-1.08zm-3.03 1.2l2.73 1.08.3-.12V5.8l-3.03 1.2z"></path>
</svg>
