
<svg width="42" height="43" viewBox="0 0 42 43" xmlns="http://www.w3.org/2000/svg"><title>telescope</title><path d="M14.4 32.2a3.6 3.6 0 0 1-3.6-3.6v-1.8a1.8 1.8 0 0 0-3.6 0v1.8a3.6 3.6 0 0 1-3.6 3.6H1.8a1.8 1.8 0 0 0 0 3.6h1.8a3.6 3.6 0 0 1 3.6 3.6v1.8a1.8 1.8 0 0 0 3.6 0v-1.8a3.6 3.6 0 0 1 3.6-3.6h1.8a1.8 1.8 0 0 0 0-3.6h-1.8zm22.2-21.4a5.4 5.4 0 0 1-5.4-5.4V2.7a2.7 2.7 0 0 0-5.4 0v2.7a5.4 5.4 0 0 1-5.4 5.4h-2.7a2.7 2.7 0 0 0 0 5.4h2.7a5.4 5.4 0 0 1 5.4 5.4v2.7a2.7 2.7 0 0 0 5.4 0v-2.7a5.4 5.4 0 0 1 5.4-5.4h2.7a2.7 2.7 0 0 0 0-5.4h-2.7zM32.5 43a3.5 3.5 0 1 0 0-7 3.5 3.5 0 0 0 0 7zm-30-31a2.5 2.5 0 1 0 0-5 2.5 2.5 0 0 0 0 5z" fill="#EEF1F3" fill-rule="nonzero"/></svg>
