<svg width="24" height="24" xmlns="http://www.w3.org/2000/svg" viewBox="0 0 80 80">
    <path fill="#AAA" d="M0 40a39.87 39.87 0 0 1 11.72-28.28A40 40 0 1 1 0 40zm34 10a4 4 0 0 1-4-4v-2a2 2 0 1 0-4 0v2a4 4 0 0 1-4 4h-2a2 2 0 1 0 0 4h2a4 4 0 0 1 4 4v2a2 2 0 1 0 4 0v-2a4 4 0 0 1 4-4h2a2 2 0 1 0 0-4h-2zm24-24a6 6 0 0 1-6-6v-3a3 3 0 0 0-6 0v3a6 6 0 0 1-6 6h-3a3 3 0 0 0 0 6h3a6 6 0 0 1 6 6v3a3 3 0 0 0 6 0v-3a6 6 0 0 1 6-6h3a3 3 0 0 0 0-6h-3zm-4 36a4 4 0 1 0 0-8 4 4 0 0 0 0 8zM21 28a3 3 0 1 0 0-6 3 3 0 0 0 0 6z"></path>
</svg>